<svg xmlns="http://www.w3.org/2000/svg" viewBox="0 0 150.68 22.88"><defs><style>.cls-1{fill:#8e2b89;}.cls-2{fill:#502c76;}.cls-3{fill:#87d0c9;}</style></defs><title>Asset 3</title><g id="Layer_2" data-name="Layer 2"><g id="Layer_1-2" data-name="Layer 1"><polygon class="cls-1" points="45.07 11.44 45.07 11.44 45.07 11.44 45.07 11.44"/><polygon class="cls-1" points="48.08 11.44 48.08 11.44 48.08 11.44 48.08 11.44"/><path class="cls-2" d="M21.43.61V22.49H18.34V6.65l-7.13,7.22h-.82L3.1,6.65V22.49H0V.61H1l9.84,10,9.67-10Z"/><path class="cls-2" d="M91.7.61,81.48,22.49H80L69.78.61h3.53l7.38,16.91L88.17.61Z"/><path class="cls-2" d="M108.63,9.88v2.78H98v7.05H110v2.78h-15V.61h15V3.38H98v6.5Z"/><path class="cls-2" d="M123.13.61a9.5,9.5,0,0,1,3.63.7,6.87,6.87,0,0,1,2.86,2.15,5.89,5.89,0,0,1,1.12,3.71,5.18,5.18,0,0,1-1.16,3.43,7.11,7.11,0,0,1-2.93,2.11,10.15,10.15,0,0,1-3.68.7c-.39,0-.91,0-1.57-.07l10.19,9.15h-4.5l-9.41-9.15v9.15h-2.94V.61Zm-5.45,2.77v7a16.87,16.87,0,0,0,2.35.46,19.61,19.61,0,0,0,2.52.16,6.12,6.12,0,0,0,3.83-1,3.35,3.35,0,0,0,1.36-2.81,3.18,3.18,0,0,0-1.49-2.81,6.43,6.43,0,0,0-3.61-1Z"/><path class="cls-2" d="M149.28,9.88v2.78H138.63v7.05h12.05v2.78h-15V.61h15V3.38H138.63v6.5Z"/><ellipse class="cls-3" cx="33.98" cy="5.13" rx="1.53" ry="1.52"/><path class="cls-2" d="M44.78,3.37A11.58,11.58,0,0,0,41.11.9,12.08,12.08,0,0,0,32,.9,11.64,11.64,0,0,0,28.3,3.37l-.05,0,2.24,1.86A8.94,8.94,0,0,1,40.92,4a8.34,8.34,0,0,1,3,3.06,8.64,8.64,0,0,1,1.11,4.38A11.36,11.36,0,0,1,45.94,7a11.84,11.84,0,0,1,.63-1.29A11.07,11.07,0,0,0,44.78,3.37Z"/><path class="cls-2" d="M67.28,7a11.28,11.28,0,0,0-2.43-3.64l0-.05L62.55,5.18A8.25,8.25,0,0,1,64,7.06a8.64,8.64,0,0,1,1.11,4.38h0A8.72,8.72,0,0,1,64,15.84a8.16,8.16,0,0,1-3,3.05,9.12,9.12,0,0,1-8.76,0,8.09,8.09,0,0,1-3-3.05,8.72,8.72,0,0,1-1.11-4.4,11.33,11.33,0,0,1-.87,4.43,11.06,11.06,0,0,1-.64,1.29,11.43,11.43,0,0,0,1.8,2.36A11.79,11.79,0,0,0,52,22a12.1,12.1,0,0,0,9.16,0,11.79,11.79,0,0,0,3.66-2.46,11.38,11.38,0,0,0,3.3-8.08h0A11.36,11.36,0,0,0,67.28,7Z"/><path class="cls-3" d="M61.19.9A12.1,12.1,0,0,0,52,.9a11.64,11.64,0,0,0-3.66,2.47,11.11,11.11,0,0,0-1.8,2.35A11.84,11.84,0,0,0,45.94,7a11.36,11.36,0,0,0-.87,4.43h0A8.72,8.72,0,0,1,44,15.84a8.16,8.16,0,0,1-3,3.05A8.55,8.55,0,0,1,36.54,20a8.67,8.67,0,0,1-4-.92,32.24,32.24,0,0,1,2.4-3.28c.71-.82,2.19-2.1,1.79-3.39-.46-1.52-2.5-1.32-3.67-1.24a39.51,39.51,0,0,0-4.43.5.5.5,0,0,1-.61-.35A8.59,8.59,0,0,1,29,7.38a.34.34,0,0,1,.22,0c.82.4,1.6.87,2.44,1.29a11.28,11.28,0,0,0,3.89,1.4c1.2.08,1.8-.69,2.21-1.69a5,5,0,0,1,1.82-2.53.62.62,0,0,0-.28-1.1,2.61,2.61,0,0,0-2.42,1.08C36.54,6.21,35.76,8,35.7,8S34.35,7.41,34,7.28a15,15,0,0,1-2-1c-.43-.27-.85-.53-1.28-.77l-.23-.19L28.25,3.42A11.34,11.34,0,0,0,25.86,7,11.54,11.54,0,0,0,25,11.44h0a11.5,11.5,0,0,0,.86,4.43,11.3,11.3,0,0,0,2.44,3.65A11.79,11.79,0,0,0,32,22a12.08,12.08,0,0,0,9.15,0,11.72,11.72,0,0,0,3.67-2.46,11.39,11.39,0,0,0,1.79-2.36,11.06,11.06,0,0,0,.64-1.29,11.33,11.33,0,0,0,.87-4.43h0a8.64,8.64,0,0,1,1.11-4.38,8.26,8.26,0,0,1,3-3.06A9.12,9.12,0,0,1,61,4a8.75,8.75,0,0,1,1.56,1.18L64.8,3.32A11.74,11.74,0,0,0,61.19.9ZM33.85,13.29s.06.05,0,.07a19.46,19.46,0,0,0-3.31,4.35,8.59,8.59,0,0,1-1.45-1.87,8.25,8.25,0,0,1-.83-2Z"/></g></g></svg>