<svg xmlns="http://www.w3.org/2000/svg" viewBox="0 0 794.05 185.32"><defs><style>.cls-1{fill:#90278e;}.cls-2{fill:#4e1977;}.cls-3{fill:#88d3cb;}</style></defs><title>Asset 4</title><g id="Layer_2" data-name="Layer 2"><g id="Layer_4" data-name="Layer 4"><polygon class="cls-1" points="237.51 60.29 237.51 60.29 237.51 60.29 237.51 60.29"/><polygon class="cls-1" points="253.35 60.29 253.35 60.29 253.35 60.29 253.35 60.29"/><path class="cls-2" d="M112.94,3.2V118.5H96.62V35l-37.52,38H54.75L16.32,35V118.5H0V3.2H5.08L56.92,56,107.86,3.2Z"/><path class="cls-2" d="M483.23,3.2,429.36,118.5h-7.75L367.75,3.2h18.58l38.9,89.14L464.64,3.2Z"/><path class="cls-2" d="M572.47,52.07V66.7h-56.1v37.17h63.5V118.5h-79V3.2h79V17.83h-63.5V52.07Z"/><path class="cls-2" d="M648.89,3.2A50.33,50.33,0,0,1,668,6.9a35.74,35.74,0,0,1,15.06,11.35Q689,25.92,689,37.79q0,10.67-6.11,18.07A37.57,37.57,0,0,1,667.39,67,52.21,52.21,0,0,1,648,70.66c-2.06,0-4.82-.11-8.26-.35l53.7,48.19H669.72L620.15,70.31V118.5H604.67V3.2ZM620.15,17.83v37a92.91,92.91,0,0,0,12.39,2.41,104.88,104.88,0,0,0,13.26.86q13.07,0,20.22-5.51a17.73,17.73,0,0,0,7.14-14.8A16.67,16.67,0,0,0,665.33,23q-7.83-5.16-19-5.16Z"/><path class="cls-2" d="M786.65,52.07V66.7h-56.1v37.17h63.5V118.5h-79V3.2h79V17.83h-63.5V52.07Z"/><ellipse class="cls-3" cx="179.05" cy="27.01" rx="8.07" ry="8"/><path class="cls-2" d="M153.8,154.14l-8.45,24.66h-1.83l-6.47-18.66L130.5,178.8h-1.83l-8.09-24.66h3.52l5.65,18.33,6.36-18.33,2.09,0,6.18,18.29,5.9-18.33Z"/><path class="cls-2" d="M173.07,164.6v3.13H161.35v8h13.26v3.12h-16.5V154.14h16.5v3.13H161.35v7.33Z"/><path class="cls-2" d="M184.68,154.14v21.54h13.26v3.12h-16.5V154.14Z"/><path class="cls-2" d="M207.54,154.14v21.54h13.27v3.12h-16.5V154.14Z"/><path class="cls-2" d="M247.26,154.14V178.8H246L230.4,161.17V178.8h-3.23V154.14h1.22L244,172V154.14Z"/><path class="cls-2" d="M270.13,164.6v3.13H258.41v8h13.26v3.12h-16.5V154.14h16.5v3.13H258.41v7.33Z"/><path class="cls-2" d="M284.33,153.77a8.46,8.46,0,0,1,3.5.63,17.1,17.1,0,0,1,2.43,1.33v3.42a13.55,13.55,0,0,0-2.45-1.46,7.23,7.23,0,0,0-3.12-.68,7.11,7.11,0,0,0-2.25.39,4.68,4.68,0,0,0-2,1.23,3.06,3.06,0,0,0-.79,2.18,2.62,2.62,0,0,0,1,2.24,14.7,14.7,0,0,0,2.52,1.47l3.31,1.55a11.39,11.39,0,0,1,3.73,2.54,5.34,5.34,0,0,1,1.26,3.72,5.72,5.72,0,0,1-1.15,3.55,8,8,0,0,1-3,2.41,9.43,9.43,0,0,1-4.1.88,9.84,9.84,0,0,1-3.84-.73,16,16,0,0,1-3.06-1.66v-3.42a17.85,17.85,0,0,0,3.22,1.78,10.16,10.16,0,0,0,4.12.79,5.48,5.48,0,0,0,3.16-.92,2.9,2.9,0,0,0,1.37-2.54,2.39,2.39,0,0,0-.56-1.58,5.37,5.37,0,0,0-1.35-1.14,12.85,12.85,0,0,0-1.55-.81l-4-1.84a7.61,7.61,0,0,1-3.52-2.76,7.08,7.08,0,0,1-.93-3.65,6,6,0,0,1,1.09-3.51,7.74,7.74,0,0,1,2.93-2.48A8.62,8.62,0,0,1,284.33,153.77Z"/><path class="cls-2" d="M303.13,153.77a8.46,8.46,0,0,1,3.5.63,17.1,17.1,0,0,1,2.43,1.33v3.42a13.8,13.8,0,0,0-2.44-1.46,7.31,7.31,0,0,0-3.13-.68,7.11,7.11,0,0,0-2.25.39,4.68,4.68,0,0,0-2,1.23,3.06,3.06,0,0,0-.79,2.18,2.62,2.62,0,0,0,1,2.24,14.7,14.7,0,0,0,2.52,1.47l3.31,1.55a11.45,11.45,0,0,1,3.74,2.54,5.38,5.38,0,0,1,1.25,3.72,5.72,5.72,0,0,1-1.15,3.55,7.87,7.87,0,0,1-3,2.41,9.41,9.41,0,0,1-4.09.88,9.89,9.89,0,0,1-3.85-.73,16,16,0,0,1-3.06-1.66v-3.42a17.85,17.85,0,0,0,3.22,1.78,10.16,10.16,0,0,0,4.12.79,5.48,5.48,0,0,0,3.16-.92,2.9,2.9,0,0,0,1.37-2.54,2.39,2.39,0,0,0-.56-1.58,5.37,5.37,0,0,0-1.35-1.14,13.54,13.54,0,0,0-1.54-.81l-4-1.84a7.6,7.6,0,0,1-3.53-2.76,7.08,7.08,0,0,1-.93-3.65,6,6,0,0,1,1.09-3.51,7.74,7.74,0,0,1,2.93-2.48A8.65,8.65,0,0,1,303.13,153.77Z"/><path class="cls-2" d="M316.46,174.46l3,1-3.23,9.83-2.23-.59Z"/><path class="cls-2" d="M340.26,154.14v10.38H354V154.14h3.23V178.8H354V167.65H340.26V178.8H337V154.14Z"/><path class="cls-2" d="M380.09,164.6v3.13H368.37v8h13.27v3.12h-16.5V154.14h16.5v3.13H368.37v7.33Z"/><path class="cls-2" d="M397.74,154.14,409,178.8h-3.89l-2.51-5.88H391.31l-2.55,5.88h-3.89l11.26-24.66Zm-.75,5.6-4.35,10h8.63Z"/><path class="cls-2" d="M416.55,154.14v21.54h13.26v3.12h-16.5V154.14Z"/><path class="cls-2" d="M453.14,154.14v3.13h-8.3v21.42H441.6V157.27h-8.3v-3.13Z"/><path class="cls-2" d="M461.37,154.14v10.38h13.74V154.14h3.23V178.8h-3.23V167.65H461.37V178.8h-3.23V154.14Z"/><path class="cls-2" d="M504.44,153.59a7.37,7.37,0,0,1,3.14.7,6.48,6.48,0,0,1,2.52,2,5.35,5.35,0,0,1,1,3.28,5.24,5.24,0,0,1-.61,2.58,7.38,7.38,0,0,1-1.62,2,18.59,18.59,0,0,1-2.23,1.63c-.31.2-.66.41-1,.63.67.79,1.35,1.56,2,2.34l2.07,2.33c.45-.71.92-1.47,1.4-2.3s1-1.77,1.62-2.85h3.52c-.79,1.43-1.56,2.76-2.3,4s-1.46,2.4-2.16,3.43q1.18,1.32,2.43,2.67l2.57,2.77h-4c-.94-1-1.88-2-2.84-3a11.53,11.53,0,0,1-3.09,2.56,8.13,8.13,0,0,1-4.06,1,9.24,9.24,0,0,1-4.16-.89,6.78,6.78,0,0,1-2.76-2.41,6.32,6.32,0,0,1-1-3.51,5.48,5.48,0,0,1,.84-3.08,8.09,8.09,0,0,1,2.21-2.19,23.9,23.9,0,0,1,2.88-1.65,18.59,18.59,0,0,1-2.07-2.62,5.71,5.71,0,0,1-.88-3.2,6,6,0,0,1,.95-3.48,6,6,0,0,1,2.47-2.06A7.64,7.64,0,0,1,504.44,153.59Zm-6,19a3.09,3.09,0,0,0,1.25,2.63,5.26,5.26,0,0,0,3.2.94,5.38,5.38,0,0,0,3-.74,8.74,8.74,0,0,0,2-1.8l-2.46-2.82-2.53-2.92a17.33,17.33,0,0,0-3.11,2A3.36,3.36,0,0,0,498.44,172.55Zm3-12.59a4,4,0,0,0,.65,2.17,13.65,13.65,0,0,0,1.58,2.06,12.26,12.26,0,0,0,2.75-1.91,3.56,3.56,0,0,0,1.13-2.69,2.42,2.42,0,0,0-.48-1.56,3,3,0,0,0-1.21-.91,3.82,3.82,0,0,0-1.4-.29,3.43,3.43,0,0,0-2.05.7A2.8,2.8,0,0,0,501.42,160Z"/><path class="cls-2" d="M541.79,153.55a10.85,10.85,0,0,1,4.62.91,7.37,7.37,0,0,1,3,2.44,6.1,6.1,0,0,1,1.08,3.57,5.79,5.79,0,0,1-1,3.3A6.48,6.48,0,0,1,547,166a5.71,5.71,0,0,1,2.12.92,5.58,5.58,0,0,1,1.75,1.91,6,6,0,0,1,.7,3,6.44,6.44,0,0,1-1.15,3.72,7.94,7.94,0,0,1-3.29,2.63,12.1,12.1,0,0,1-5,1,42.19,42.19,0,0,1-4.66-.27c-1.62-.19-3-.4-4.11-.65V154.47a34,34,0,0,1,4.08-.68A40.68,40.68,0,0,1,541.79,153.55Zm-.22,3.13c-1,0-1.91,0-2.71.11s-1.58.19-2.32.33v7.73h5.65a5.09,5.09,0,0,0,3.73-1.27,4,4,0,0,0,1.3-3,3.16,3.16,0,0,0-.79-2.19,5.08,5.08,0,0,0-2.07-1.31A8.59,8.59,0,0,0,541.57,156.68Zm-5,18.92a21,21,0,0,0,2.88.35c1.05.06,1.91.09,2.59.09a8.15,8.15,0,0,0,4.47-1.14,3.47,3.47,0,0,0,1.78-3.05,3.3,3.3,0,0,0-1.74-3,8.45,8.45,0,0,0-4.26-1h-5.72Z"/><path class="cls-2" d="M572.89,164.6v3.13H561.17v8h13.26v3.12h-16.5V154.14h16.5v3.13H561.17v7.33Z"/><path class="cls-2" d="M590.54,154.14l11.25,24.66h-3.88l-2.52-5.88H584.1l-2.55,5.88h-3.88l11.25-24.66Zm-.76,5.6-4.35,10h8.63Z"/><path class="cls-2" d="M625.59,154.07v15a10.84,10.84,0,0,1-1.32,5.5,8.88,8.88,0,0,1-3.54,3.52,11.18,11.18,0,0,1-10.12,0,8.93,8.93,0,0,1-3.56-3.52,11,11,0,0,1-1.31-5.5v-15H609v14.87a7.89,7.89,0,0,0,.91,4.05,5.42,5.42,0,0,0,2.45,2.23,8.11,8.11,0,0,0,3.32.68,8.71,8.71,0,0,0,3.33-.72,5.31,5.31,0,0,0,2.44-2.21,7.78,7.78,0,0,0,.92-4V154.07Z"/><path class="cls-2" d="M650.1,154.14v3.13h-8.3v21.42h-3.24V157.27h-8.3v-3.13Z"/><path class="cls-2" d="M673.47,154.14l-9.24,14.54V178.8h-3.49v-9.64l-9.24-15h3.89l7,11.63,7.16-11.63Z"/><path class="cls-2" d="M236,17.74a61.13,61.13,0,0,0-19.3-13,61.55,61.55,0,0,0-67.53,13l-.28.3,11.81,9.79a47,47,0,0,1,55-6.73,43.67,43.67,0,0,1,16,16.11,45.42,45.42,0,0,1,5.86,23.08A60,60,0,0,1,242.07,37a61.36,61.36,0,0,1,3.36-6.8A59,59,0,0,0,236,17.74Z"/><path class="cls-2" d="M354.56,37a59.14,59.14,0,0,0-12.83-19.21l-.27-.25L329.63,27.3a43.52,43.52,0,0,1,7.79,9.91,45.42,45.42,0,0,1,5.86,23.08h0a45.88,45.88,0,0,1-5.86,23.17,42.65,42.65,0,0,1-16,16.11,48.4,48.4,0,0,1-46.17,0,42.65,42.65,0,0,1-16-16.11,45.88,45.88,0,0,1-5.86-23.17,60.11,60.11,0,0,1-4.56,23.35,62.1,62.1,0,0,1-3.36,6.79,58.79,58.79,0,0,0,9.47,12.41,61.16,61.16,0,0,0,19.3,13,63.71,63.71,0,0,0,48.23,0,61,61,0,0,0,19.3-13,59,59,0,0,0,12.83-19.2,60.12,60.12,0,0,0,4.57-23.35h0A60,60,0,0,0,354.56,37Z"/><path class="cls-3" d="M322.43,4.74a63.71,63.71,0,0,0-48.23,0,61.13,61.13,0,0,0-19.3,13,59,59,0,0,0-9.47,12.41,61.36,61.36,0,0,0-3.36,6.8,60,60,0,0,0-4.56,23.34h0a45.88,45.88,0,0,1-5.86,23.17,42.79,42.79,0,0,1-16,16.11,48.52,48.52,0,0,1-44.22,1,172.31,172.31,0,0,1,12.68-17.27c3.72-4.33,11.51-11.07,9.44-17.85-2.46-8-13.19-7-19.38-6.55a207.77,207.77,0,0,0-23.32,2.63,2.65,2.65,0,0,1-3.23-1.86,45.57,45.57,0,0,1,4.94-20.79,1.7,1.7,0,0,1,1.17.1c4.34,2.11,8.45,4.55,12.84,6.77,5.95,3,13.73,6.89,20.53,7.38,6.34.45,9.49-3.61,11.63-8.87,2.4-5.9,4.31-9.51,9.63-13.38,2.16-1.57,1.36-5.59-1.49-5.79a13.84,13.84,0,0,0-12.77,5.72c-1.5,1.91-5.62,11.44-5.94,11.49-.48.07-7.1-3.28-8.77-4a78.87,78.87,0,0,1-10.76-5.48c-2.25-1.39-4.47-2.76-6.74-4l-1.21-1L148.85,18A59,59,0,0,0,136.3,37a59.85,59.85,0,0,0-4.57,23.34h0a59.94,59.94,0,0,0,4.57,23.35,59,59,0,0,0,12.83,19.2,61,61,0,0,0,19.3,13,63.71,63.71,0,0,0,48.23,0,61.16,61.16,0,0,0,19.3-13,58.79,58.79,0,0,0,9.47-12.41,62.1,62.1,0,0,0,3.36-6.79,60.11,60.11,0,0,0,4.56-23.35h0a45.42,45.42,0,0,1,5.86-23.08,43.52,43.52,0,0,1,16-16.11,45.5,45.5,0,0,1,54.4,6.2l11.83-9.81A61,61,0,0,0,322.43,4.74ZM178.38,70a.23.23,0,0,1,.18.39A101.82,101.82,0,0,0,161.1,93.3a43.56,43.56,0,0,1-12-20.56Z"/></g></g></svg>